<svg id="Layer_1" data-name="Layer 1" xmlns="http://www.w3.org/2000/svg" viewBox="0 0 716.89 201.42"><path d="M63.55,0c.93.11,1.86.27,2.8.33a36.71,36.71,0,0,1,9.33,1.76A11,11,0,0,1,80.93,5.7a28.33,28.33,0,0,1,6.28,16,11.82,11.82,0,0,1-1.8,7.2c-6.87,11.32-13.78,22.61-20.5,34-5,8.42-9.76,17-13,26.2C49.23,96.66,47,104.36,44.52,112c-3.45,10.78-6.45,21.69-10.37,32.32a27.27,27.27,0,0,0-1.9,10.19c.1,4.39,1.87,7.66,6,9.58a36.82,36.82,0,0,0,19.52,3.66c6.2-.62,12.44-.87,18.66-1.27a226.24,226.24,0,0,0,47.77-8c8.11-2.32,16.27-4.52,24.37-6.87a4,4,0,0,1,4,.94c-.85,1.53-1.58,3.1-2.55,4.51a6.15,6.15,0,0,1-2.29,1.91c-2.59,1.25-5.27,2.3-7.87,3.53a15.43,15.43,0,0,0-3,1.9,3.81,3.81,0,0,0-1.43,3c-.29,4.93-2.65,8.61-7.24,10.47-3.76,1.52-7.7,2.59-11.57,3.85-.5.17-1,.26-1.6.41,0,1.12,0,2.2,0,3.27a12.83,12.83,0,0,1-.21,2.32,3.22,3.22,0,0,1-3.57,2.85,15.05,15.05,0,0,1-5.7-1.3c1.38-1.45,3.24-2.12,4.74-3.78a6.08,6.08,0,0,0-1.5-.18q-6.42,1.32-12.84,2.68a3.63,3.63,0,0,0-.63.36l5.4,5c-.29.23-.4.39-.55.45-3.08,1.18-6.15,2.37-9.24,3.51a23.68,23.68,0,0,1-7,1.5c-14.86.78-29.71,1.47-44.59,1.09-2.52-.07-5-.11-7.54-.42a22.5,22.5,0,0,1-12.41-6,37.08,37.08,0,0,1-6.58-7.83c-2.68-4.25-5.33-8.54-7.87-12.88a32.58,32.58,0,0,1-4.14-10.1,24.84,24.84,0,0,1-.54-3.73C.13,155,0,151.11,0,147.21a45.53,45.53,0,0,1,2-13.1c4.33-14.76,8.57-29.55,13-44.29,2-6.78,5.2-13.13,8.24-19.51,2.65-5.57,5.45-11.08,7.35-17,.51-1.59,1-3.19,1.45-4.81,2.11-8,5.67-15.38,9-22.88,3.11-7,6.38-13.95,9.48-21a5.67,5.67,0,0,1,4-3.5c1.74-.4,3.53-.59,5.3-.86C60.6.2,61.35.11,62.11,0Z"/><path d="M197.77,201.42l-4.18-.85a36.45,36.45,0,0,1-16.45-8,69.6,69.6,0,0,1-11.41-12.41,16.39,16.39,0,0,1-2.81-9.51c-.12-3.95,0-7.91.1-11.86,0-1.74.24-3.48.14-5.21a12.06,12.06,0,0,1,1.58-7.52l-1.33-1.71c-3.11-3.88-6.25-7.74-9.3-11.66a14.7,14.7,0,0,1-2-3.4,7.18,7.18,0,0,1,.92-7.47,11.78,11.78,0,0,1,2.8-2.75c2.7-1.78,5.48-3.45,8.3-5a14.73,14.73,0,0,1,7.59-1.82A12.05,12.05,0,0,0,183,105.83a46,46,0,0,0,2.18-4.32c4.54-10,10.64-18.9,19.15-26a68.21,68.21,0,0,1,36.26-15.69,36.65,36.65,0,0,1,28.93,8.72,19.69,19.69,0,0,1,7.22,13.8,22,22,0,0,1-1.49,9.86,47.5,47.5,0,0,1-3.16,6.64C262,116.4,247.4,129.11,229,137.34c-7.53,3.37-15.37,6-23.07,9-1.12.43-2.25.81-3.37,1.25a24.66,24.66,0,0,0-2.29,1c-3,1.62-4.65,4.1-4.32,7.61a10.19,10.19,0,0,1-.67,4.92,4.83,4.83,0,0,0,.17,4.33c.79,1.47,1.46,3,2.22,4.5a6.9,6.9,0,0,0,6.1,4.08c4.07.24,8.13.68,12.2.71,8,.06,15.94-.1,23.91-.21,1.25,0,2.5-.24,3.76-.35,2.26-.2,3.2.54,3.57,2.78a2.25,2.25,0,0,1,.1.71c-.35,1.94.82,2.82,2.33,3.54s2.95,1.51,4.76,2.45c-1.07.5-1.8.89-2.56,1.19-8.45,3.35-16.9,6.73-25.39,10A97.8,97.8,0,0,1,212,199.74c-2.51.54-5.06.9-7.6,1.36-.4.07-.79.21-1.19.32Zm16.33-92.06c8.68-1.46,25.9-14.87,31-23.83a3.32,3.32,0,0,0-.53,0c-.41.06-.82.15-1.24.22a24,24,0,0,0-12.75,6.87q-5.13,5-10.16,10.15C218.38,104.82,216.39,107,214.1,109.36Z"/><path d="M677.24,167.61c-1.71,1.6-3.35,3.16-5,4.67a2.86,2.86,0,0,1-1.27.65,5.07,5.07,0,0,0-3.19,2.39,44.89,44.89,0,0,1-14.21,12.76,140.43,140.43,0,0,1-17.33,8.28c-1,.42-2,.76-3,1.27-4.43,2.35-9.14,2.67-14,1.94a45.82,45.82,0,0,1-13.15-4.11c-6.48-3.14-10.56-8.29-12.86-15-.5-1.48-.93-3-1.42-4.45a31.53,31.53,0,0,0-4.27-8.07c-1-1.45-1.63-1.62-3.18-.75-3.08,1.74-6.14,3.51-9.15,5.36-3.63,2.23-7.18,4.57-10.79,6.81a154.14,154.14,0,0,1-24.66,12.47c-6.13,2.42-12.48,3.94-19.12,3.43-8.19-.64-15.39-3.48-20.77-10a19.19,19.19,0,0,1-2-2.79A43.32,43.32,0,0,1,492.21,160a51.58,51.58,0,0,1,3.43-16.65,19.94,19.94,0,0,1,2-4,256,256,0,0,1,24.06-31.12,158.28,158.28,0,0,1,23.57-20.76q3.62-2.69,7.28-5.28a49.59,49.59,0,0,1,46.92-4.88,54.22,54.22,0,0,1,11.12,6.9c3.26,2.51,3.7,4.84,1.66,8.47-1,1.82-2.27,3.5-3.55,5.44,1.17.28,2.28.58,3.41.81a18.09,18.09,0,0,1,6.77,2.76,15.05,15.05,0,0,1,6.74,11.73c.48,5.65-1,10.9-3.13,16.06-1.37,3.38-2.81,6.76-3.86,10.24a45.73,45.73,0,0,0-2.08,16.85,17.8,17.8,0,0,0,2.24,7.32c2.74,4.94,7.43,7,13.41,6.17,11.26-1.65,22.53-3.24,33.8-4.86a10.37,10.37,0,0,0,1.25-.12C670.94,164.06,674.11,165.15,677.24,167.61ZM602.82,98.87c-1.53-.5-2.69-1-3.91-1.26a36.48,36.48,0,0,0-16,.09,49.24,49.24,0,0,0-16.41,7.51,115.88,115.88,0,0,0-13.61,10.88c-7.29,6.71-13.94,14-20.52,21.42a57,57,0,0,0-7.7,11,51.35,51.35,0,0,0-5.26,13.89c-.53,2.58.48,3.75,3.09,3.8a33.59,33.59,0,0,0,9.76-1.36A67.6,67.6,0,0,0,561,148.56c4.17-4,8.34-7.93,12.48-11.93A183.31,183.31,0,0,0,593.71,113C597,108.61,599.68,103.79,602.82,98.87Z"/><path d="M323.36,200a46.36,46.36,0,0,1-19.82-4.65,38.3,38.3,0,0,1-16.89-16.14c-2.45-4.39-4.8-8.85-7.45-13.12a23.67,23.67,0,0,1-3.13-16.57,113.57,113.57,0,0,1,3.53-17.41A84.1,84.1,0,0,1,289,112.17c5.12-8,10.39-16,15.71-23.88A59.81,59.81,0,0,1,315,76.52a37.19,37.19,0,0,1,25.29-9.6,30.1,30.1,0,0,1,16.07,4.5c5.28,3.3,10.41,6.84,15.55,10.36,3.66,2.5,7.21,5.16,10.83,7.73a3.6,3.6,0,0,1,1.62,2.25c2.29,9.79,4.67,19.56,6.89,29.37a12.57,12.57,0,0,1-.21,4.26,121,121,0,0,1-5.72,25.72,68.09,68.09,0,0,1-14.44,24,157.39,157.39,0,0,1-12.47,12.44C348.93,195.64,339,199.8,323.36,200Zm.09-36c1.88-.32,3.79-.52,5.64-1,4.58-1.1,8.5-3.53,12.2-6.34,3.29-2.5,6.48-5.14,9.77-7.63a21.43,21.43,0,0,0,6.88-8.62c.87-2,1.57-4.13,2.32-6.22,1.3-3.6,2.54-7.22,3.88-10.8a2,2,0,0,0-.14-1.69c-1.12-2.51-2.15-5.07-3.38-7.54s-2.49-4.64-3.85-6.89a15.81,15.81,0,0,0-2.25-2.79c-2.82-2.88-5.42-3.06-8.59-.6a19.7,19.7,0,0,0-2.75,2.57c-4.46,5.18-9,10.33-13.29,15.61a74.84,74.84,0,0,0-16.38,35.48c-.11.65-.17,1.31-.28,1.95a1.93,1.93,0,0,0,1.33,2.24A24.43,24.43,0,0,0,323.45,164Z"/><path d="M439.2,101.53l2.32.63c.44-.52.88-1.08,1.38-1.6,6.29-6.58,12.53-13.22,18.93-19.7A70.45,70.45,0,0,1,479.28,67.7,47.28,47.28,0,0,1,502.75,62a55.63,55.63,0,0,1,9.09,1c5.32,1,10.39,8.06,9.94,13.45a7.42,7.42,0,0,1-4.12,6.33A14.86,14.86,0,0,1,514.31,84a71.73,71.73,0,0,0-30.11,16.17,112.25,112.25,0,0,0-13.46,14.2,269.14,269.14,0,0,0-20.28,28.78,179.57,179.57,0,0,0-18.79,43.2,25,25,0,0,1-3.34,7.52,14.38,14.38,0,0,1-12.16,6.52,26.45,26.45,0,0,1-13.08-3.34c-4-2.17-6-5.71-6.31-10.22a40.91,40.91,0,0,1,.85-10.18c2.75-15.14,5.58-30.26,8.32-45.4,1.07-6,2.19-11.91,2.88-17.91a123.74,123.74,0,0,0,.49-13.63c0-5.75-.17-11.5-.26-17.25a18.3,18.3,0,0,1,1.19-7.76c2.43-5.57,6.81-8.83,12.58-10.33a17.21,17.21,0,0,1,10.26.48,8,8,0,0,1,4.59,4A39.2,39.2,0,0,1,441,79.3a27.46,27.46,0,0,1-.13,10.34C440.18,93.52,439.77,97.45,439.2,101.53Z"/><path d="M716.89,189.63c.06,5.79-7.23,11.6-12.88,10-5.19-1.43-9.28-7.74-8.22-13a6.43,6.43,0,0,1,.38-1.2,11.94,11.94,0,0,1,11.52-6.73,6.71,6.71,0,0,1,2,.63,13.27,13.27,0,0,1,6.62,7.26A14.52,14.52,0,0,1,716.89,189.63Z"/></svg>